<svg width="24" height="24" viewBox="0 0 24 24" fill="none" xmlns="http://www.w3.org/2000/svg">
<path fill-rule="evenodd" clip-rule="evenodd" d="M12 23C18.0751 23 23 18.0751 23 12C23 5.92487 18.0751 1 12 1C5.92487 1 1 5.92487 1 12C1 18.0751 5.92487 23 12 23ZM12 24C18.6274 24 24 18.6274 24 12C24 5.37258 18.6274 0 12 0C5.37258 0 0 5.37258 0 12C0 18.6274 5.37258 24 12 24Z" fill="white"/>
<path d="M14.1982 15.6592C14.1982 15.1611 14.04 14.751 13.7236 14.4287C13.4072 14.1006 12.8799 13.8076 12.1416 13.5498C11.4033 13.2861 10.8291 13.043 10.4189 12.8203C9.05371 12.0879 8.37109 11.0039 8.37109 9.56836C8.37109 8.5957 8.66699 7.7959 9.25879 7.16895C9.85059 6.54199 10.6533 6.16992 11.667 6.05273V4.13672H13.0732V6.07031C14.0928 6.2168 14.8809 6.65039 15.4375 7.37109C15.9941 8.08594 16.2725 9.01758 16.2725 10.166H14.1455C14.1455 9.42773 13.9785 8.84766 13.6445 8.42578C13.3164 7.99805 12.8682 7.78418 12.2998 7.78418C11.7373 7.78418 11.2979 7.93652 10.9814 8.24121C10.665 8.5459 10.5068 8.98242 10.5068 9.55078C10.5068 10.0605 10.6621 10.4707 10.9727 10.7812C11.2891 11.0859 11.8223 11.376 12.5723 11.6514C13.3223 11.9268 13.9111 12.1816 14.3389 12.416C14.7666 12.6504 15.127 12.9199 15.4199 13.2246C15.7129 13.5234 15.9385 13.8691 16.0967 14.2617C16.2549 14.6543 16.334 15.1143 16.334 15.6416C16.334 16.6318 16.0293 17.4346 15.4199 18.0498C14.8164 18.665 13.9727 19.0283 12.8887 19.1396V20.8535H11.4912V19.1484C10.3311 19.0195 9.4375 18.6035 8.81055 17.9004C8.18945 17.1973 7.87891 16.2656 7.87891 15.1055H10.0146C10.0146 15.8438 10.1992 16.415 10.5684 16.8193C10.9434 17.2236 11.4707 17.4258 12.1504 17.4258C12.8184 17.4258 13.3252 17.2646 13.6709 16.9424C14.0225 16.6201 14.1982 16.1924 14.1982 15.6592Z" fill="white"/>
</svg>
